<mxfile host="app.diagrams.net" agent="Mozilla/5.0 (Windows NT 10.0; Win64; x64) AppleWebKit/537.36 (KHTML, like Gecko) Chrome/131.0.0.0 Safari/537.36" version="24.8.8">
  <diagram id="C5RBs43oDa-KdzZeNtuy" name="Page-1">
    <mxGraphModel dx="2607" dy="1718" grid="1" gridSize="10" guides="1" tooltips="1" connect="1" arrows="1" fold="1" page="1" pageScale="1" pageWidth="1654" pageHeight="1169" background="#ffffff" math="0" shadow="0">
      <root>
        <mxCell id="WIyWlLk6GJQsqaUBKTNV-0" />
        <mxCell id="WIyWlLk6GJQsqaUBKTNV-1" parent="WIyWlLk6GJQsqaUBKTNV-0" />
        <mxCell id="zkfFHV4jXpPFQw0GAbJ--6" value="Game" style="swimlane;fontStyle=0;align=center;verticalAlign=top;childLayout=stackLayout;horizontal=1;startSize=26;horizontalStack=0;resizeParent=1;resizeLast=0;collapsible=1;marginBottom=0;rounded=0;shadow=0;strokeWidth=1;flipH=0;flipV=0;" parent="WIyWlLk6GJQsqaUBKTNV-1" vertex="1">
          <mxGeometry x="-760" y="340" width="320" height="310" as="geometry">
            <mxRectangle x="130" y="380" width="160" height="26" as="alternateBounds" />
          </mxGeometry>
        </mxCell>
        <mxCell id="zkfFHV4jXpPFQw0GAbJ--7" value="- gameID: int&#xa;- gameOn: boolean&#xa;- playOrder: Queue&lt;Player&gt;&#xa;- currentPlayer: Player&#xa;- gameBoard: Board&#xa;- rand: Random&#xa;- playerList: ArrayList&lt;Player&gt;" style="text;align=left;verticalAlign=top;spacingLeft=4;spacingRight=4;overflow=hidden;rotatable=0;points=[[0,0.5],[1,0.5]];portConstraint=eastwest;spacing=7;" parent="zkfFHV4jXpPFQw0GAbJ--6" vertex="1">
          <mxGeometry y="26" width="320" height="124" as="geometry" />
        </mxCell>
        <mxCell id="zkfFHV4jXpPFQw0GAbJ--9" value="" style="line;html=1;strokeWidth=1;align=left;verticalAlign=middle;spacingTop=-1;spacingLeft=3;spacingRight=3;rotatable=0;labelPosition=right;points=[];portConstraint=eastwest;" parent="zkfFHV4jXpPFQw0GAbJ--6" vertex="1">
          <mxGeometry y="150" width="320" height="8" as="geometry" />
        </mxCell>
        <mxCell id="zkfFHV4jXpPFQw0GAbJ--10" value="+ Game(gameID: int)&#xa;+ gameFlow(gameID: int): void&#xa;+ gameLoop(): void&#xa;+ createRandomOrder(): void&#xa;+ switchTurn(): void&#xa;+ endGamet(): void&#xa;+ calculateWinCondition(): int&#xa;+ computersTurn(dimension: int): int&#xa;+ afterGame(): void" style="text;align=left;verticalAlign=top;spacingLeft=4;spacingRight=4;overflow=hidden;rotatable=0;points=[[0,0.5],[1,0.5]];portConstraint=eastwest;fontStyle=0;spacing=5;" parent="zkfFHV4jXpPFQw0GAbJ--6" vertex="1">
          <mxGeometry y="158" width="320" height="152" as="geometry" />
        </mxCell>
        <mxCell id="zkfFHV4jXpPFQw0GAbJ--13" value="Board" style="swimlane;fontStyle=0;align=center;verticalAlign=top;childLayout=stackLayout;horizontal=1;startSize=26;horizontalStack=0;resizeParent=1;resizeLast=0;collapsible=1;marginBottom=0;rounded=0;shadow=0;strokeWidth=1;" parent="WIyWlLk6GJQsqaUBKTNV-1" vertex="1">
          <mxGeometry x="-400" y="730" width="380" height="670" as="geometry">
            <mxRectangle x="340" y="380" width="170" height="26" as="alternateBounds" />
          </mxGeometry>
        </mxCell>
        <mxCell id="zkfFHV4jXpPFQw0GAbJ--14" value="- spaceTotal: int&#xa;- table: char[][]&#xa;- name: String&#xa;- isFull: boolean&#xa;- spacesTaken: int" style="text;align=left;verticalAlign=top;spacingLeft=4;spacingRight=4;overflow=hidden;rotatable=0;points=[[0,0.5],[1,0.5]];portConstraint=eastwest;spacing=5;" parent="zkfFHV4jXpPFQw0GAbJ--13" vertex="1">
          <mxGeometry y="26" width="380" height="94" as="geometry" />
        </mxCell>
        <mxCell id="zkfFHV4jXpPFQw0GAbJ--15" value="" style="line;html=1;strokeWidth=1;align=left;verticalAlign=middle;spacingTop=-1;spacingLeft=3;spacingRight=3;rotatable=0;labelPosition=right;points=[];portConstraint=eastwest;" parent="zkfFHV4jXpPFQw0GAbJ--13" vertex="1">
          <mxGeometry y="120" width="380" height="8" as="geometry" />
        </mxCell>
        <mxCell id="5Fjf6s8IEesb-JCjyJA4-1" value="+ create(): void&#xa;+ create(Name: String): void&#xa;+ create(Name: String, rows: int, columns: int): void&#xa;+ print(): void&#xa;+ checkSpaceValid(row: int, column: int): boolean&#xa;+ checkSpaceAvailable(row: int, column: int): boolean&#xa;+ placeSymbol(row: int, coumnl: int, symbol: char): void&#xa;+ checkIfWin(row: int, column: int, numbersInRowToWin): boolean&#xa;+ checkHorizontal(row: int, column: int): int&#xa;+ checkVertical(row: int, column: int): int&#xa;+ checkDiagonalDown(row: int, column: int): int&#xa;+ checkDiagonalUp(row: int, column: int): int&#xa;+ checkUp(row: int, column: int): int&#xa;+ checkDown(row: int, column: int): int&#xa;+ checkLeft(row: int, column: int): int&#xa;+ checkRight(row: int, column: int): int&#xa;+ checkUpLeft(row: int, column: int): int&#xa;+ checkDownLeft(row: int, column: int): int&#xa;+ checkUpRight(row: int, column: int): int&#xa;+ checkDownRight(row: int, column: int): int&#xa;+ printRow(x: int): void&#xa;+ printColumnNumbers(): void&#xa;+ printLine(): void&#xa;+ checkIfFull(): boolean+ clear(): void&#xa;+ clear(): void&#xa;+ getName(): String&#xa;+ setName(name: String): void&#xa;+ getTable(): char&#xa;+ setTable(table: char[][]): void&#xa;+ getRows(): int&#xa;+ get Columns():int&#xa;+ getSpacesTaken(): int&#xa;+ setSpacesTaken(spacesTaken: int ): void&#xa;+ getSpacesTotal(): int&#xa;+ setSpacesTotal(spacesTotal: int): void&#xa;+ getIsFull(): boolean&#xa;+ setIsFull(isFull: boolean): void&#xa;" style="text;align=left;verticalAlign=top;spacingLeft=4;spacingRight=4;overflow=hidden;rotatable=0;points=[[0,0.5],[1,0.5]];portConstraint=eastwest;spacing=5;" parent="zkfFHV4jXpPFQw0GAbJ--13" vertex="1">
          <mxGeometry y="128" width="380" height="542" as="geometry" />
        </mxCell>
        <mxCell id="zkfFHV4jXpPFQw0GAbJ--17" value="Main" style="swimlane;fontStyle=0;align=center;verticalAlign=top;childLayout=stackLayout;horizontal=1;startSize=26;horizontalStack=0;resizeParent=1;resizeLast=0;collapsible=1;marginBottom=0;rounded=0;shadow=0;strokeWidth=1;" parent="WIyWlLk6GJQsqaUBKTNV-1" vertex="1">
          <mxGeometry x="-1120" y="90" width="360" height="140" as="geometry">
            <mxRectangle x="550" y="140" width="160" height="26" as="alternateBounds" />
          </mxGeometry>
        </mxCell>
        <mxCell id="zkfFHV4jXpPFQw0GAbJ--18" value="- gameScanner: Scanner&#xa;- players: ArrayList&lt;Player&gt;" style="text;align=left;verticalAlign=top;spacingLeft=4;spacingRight=4;overflow=hidden;rotatable=0;points=[[0,0.5],[1,0.5]];portConstraint=eastwest;spacing=4;spacingTop=1;" parent="zkfFHV4jXpPFQw0GAbJ--17" vertex="1">
          <mxGeometry y="26" width="360" height="44" as="geometry" />
        </mxCell>
        <mxCell id="zkfFHV4jXpPFQw0GAbJ--23" value="" style="line;html=1;strokeWidth=1;align=left;verticalAlign=middle;spacingTop=-1;spacingLeft=3;spacingRight=3;rotatable=0;labelPosition=right;points=[];portConstraint=eastwest;" parent="zkfFHV4jXpPFQw0GAbJ--17" vertex="1">
          <mxGeometry y="70" width="360" height="8" as="geometry" />
        </mxCell>
        <mxCell id="zkfFHV4jXpPFQw0GAbJ--24" value="+ main(String[] args): void&#xa;+ createPlayerList(human: int, computer: int): ArrayList&lt;Player&gt;&#xa;+ startGame(gameID: int): void" style="text;align=left;verticalAlign=top;spacingLeft=4;spacingRight=4;overflow=hidden;rotatable=0;points=[[0,0.5],[1,0.5]];portConstraint=eastwest;spacing=4;" parent="zkfFHV4jXpPFQw0GAbJ--17" vertex="1">
          <mxGeometry y="78" width="360" height="62" as="geometry" />
        </mxCell>
        <mxCell id="5Fjf6s8IEesb-JCjyJA4-2" value="Player" style="swimlane;fontStyle=0;align=center;verticalAlign=top;childLayout=stackLayout;horizontal=1;startSize=26;horizontalStack=0;resizeParent=1;resizeLast=0;collapsible=1;marginBottom=0;rounded=0;shadow=0;strokeWidth=1;" parent="WIyWlLk6GJQsqaUBKTNV-1" vertex="1">
          <mxGeometry x="-1150" y="730" width="380" height="330" as="geometry">
            <mxRectangle x="230" y="140" width="160" height="26" as="alternateBounds" />
          </mxGeometry>
        </mxCell>
        <mxCell id="5Fjf6s8IEesb-JCjyJA4-3" value="- name: String&#xa;- symbol: char&#xa;- stats: int&#xa;- isHuman: boolean" style="text;align=left;verticalAlign=top;spacingLeft=4;spacingRight=4;overflow=hidden;rotatable=0;points=[[0,0.5],[1,0.5]];portConstraint=eastwest;spacing=5;" parent="5Fjf6s8IEesb-JCjyJA4-2" vertex="1">
          <mxGeometry y="26" width="380" height="74" as="geometry" />
        </mxCell>
        <mxCell id="5Fjf6s8IEesb-JCjyJA4-4" value="" style="line;html=1;strokeWidth=1;align=left;verticalAlign=middle;spacingTop=-1;spacingLeft=3;spacingRight=3;rotatable=0;labelPosition=right;points=[];portConstraint=eastwest;" parent="5Fjf6s8IEesb-JCjyJA4-2" vertex="1">
          <mxGeometry y="100" width="380" height="8" as="geometry" />
        </mxCell>
        <mxCell id="5Fjf6s8IEesb-JCjyJA4-5" value="+ createPlayer(name: String, isHuman: boolean): Player&#xa;+ chooseName(ArrayList&lt;Player&gt; playerList): void&#xa;+ checkName(index: int, ArrayList&lt;Player&gt; playerList): String&#xa;+ nameFilter(name: String, ArrayList&lt;Player&gt; playerList):  boolean&#xa;+ chooseSymbol(ArrayList&lt;Player&gt; playerList): void&#xa;+ getSymbol(): char&#xa;+ getName(): String&#xa;+ increaseStats(gameID: int): void&#xa;+ setName(name: String): void&#xa;+ setSymbol(symbol: char): void&#xa;+ getisHuman(): boolean&#xa;+ setisHuman(isHuman: boolean): void&#xa;+ getWins(gameMode: int): int&#xa;+ intInputFilter(max: int): int" style="text;align=left;verticalAlign=top;spacingLeft=4;spacingRight=4;overflow=hidden;rotatable=0;points=[[0,0.5],[1,0.5]];portConstraint=eastwest;spacing=4;" parent="5Fjf6s8IEesb-JCjyJA4-2" vertex="1">
          <mxGeometry y="108" width="380" height="222" as="geometry" />
        </mxCell>
        <mxCell id="N_A9IxjKInLsRiJJZ5lA-0" value="Menu" style="swimlane;fontStyle=0;align=center;verticalAlign=top;childLayout=stackLayout;horizontal=1;startSize=26;horizontalStack=0;resizeParent=1;resizeLast=0;collapsible=1;marginBottom=0;rounded=0;shadow=0;strokeWidth=1;flipH=0;flipV=0;" parent="WIyWlLk6GJQsqaUBKTNV-1" vertex="1">
          <mxGeometry x="-410" y="120" width="170" height="110" as="geometry">
            <mxRectangle x="130" y="380" width="160" height="26" as="alternateBounds" />
          </mxGeometry>
        </mxCell>
        <mxCell id="N_A9IxjKInLsRiJJZ5lA-2" value="" style="line;html=1;strokeWidth=1;align=left;verticalAlign=middle;spacingTop=-1;spacingLeft=3;spacingRight=3;rotatable=0;labelPosition=right;points=[];portConstraint=eastwest;" parent="N_A9IxjKInLsRiJJZ5lA-0" vertex="1">
          <mxGeometry y="26" width="170" height="10" as="geometry" />
        </mxCell>
        <mxCell id="N_A9IxjKInLsRiJJZ5lA-3" value="+ selectGame(): int" style="text;align=left;verticalAlign=top;spacingLeft=4;spacingRight=4;overflow=hidden;rotatable=0;points=[[0,0.5],[1,0.5]];portConstraint=eastwest;fontStyle=0;spacing=5;" parent="N_A9IxjKInLsRiJJZ5lA-0" vertex="1">
          <mxGeometry y="36" width="170" height="32" as="geometry" />
        </mxCell>
        <mxCell id="c0eq8TVzOy0IekXLk8YF-6" value="" style="endArrow=classic;html=1;rounded=0;entryX=0.5;entryY=0;entryDx=0;entryDy=0;" edge="1" parent="WIyWlLk6GJQsqaUBKTNV-1" target="5Fjf6s8IEesb-JCjyJA4-2">
          <mxGeometry width="50" height="50" relative="1" as="geometry">
            <mxPoint x="-760" y="640" as="sourcePoint" />
            <mxPoint x="-890" y="470" as="targetPoint" />
            <Array as="points">
              <mxPoint x="-960" y="640" />
            </Array>
          </mxGeometry>
        </mxCell>
        <mxCell id="c0eq8TVzOy0IekXLk8YF-7" value="" style="endArrow=classic;html=1;rounded=0;entryX=0.5;entryY=0;entryDx=0;entryDy=0;exitX=1.006;exitY=0.929;exitDx=0;exitDy=0;exitPerimeter=0;" edge="1" parent="WIyWlLk6GJQsqaUBKTNV-1" source="zkfFHV4jXpPFQw0GAbJ--10" target="zkfFHV4jXpPFQw0GAbJ--13">
          <mxGeometry width="50" height="50" relative="1" as="geometry">
            <mxPoint x="-640" y="920" as="sourcePoint" />
            <mxPoint x="-590" y="870" as="targetPoint" />
            <Array as="points">
              <mxPoint x="-210" y="640" />
            </Array>
          </mxGeometry>
        </mxCell>
        <mxCell id="c0eq8TVzOy0IekXLk8YF-8" value="" style="endArrow=classic;html=1;rounded=0;exitX=1.001;exitY=0;exitDx=0;exitDy=0;exitPerimeter=0;entryX=0.5;entryY=0;entryDx=0;entryDy=0;" edge="1" parent="WIyWlLk6GJQsqaUBKTNV-1" source="zkfFHV4jXpPFQw0GAbJ--23" target="zkfFHV4jXpPFQw0GAbJ--6">
          <mxGeometry width="50" height="50" relative="1" as="geometry">
            <mxPoint x="-640" y="500" as="sourcePoint" />
            <mxPoint x="-590" y="450" as="targetPoint" />
            <Array as="points">
              <mxPoint x="-600" y="160" />
            </Array>
          </mxGeometry>
        </mxCell>
        <mxCell id="c0eq8TVzOy0IekXLk8YF-9" value="" style="endArrow=classic;html=1;rounded=0;entryX=0.5;entryY=0;entryDx=0;entryDy=0;" edge="1" parent="WIyWlLk6GJQsqaUBKTNV-1" target="zkfFHV4jXpPFQw0GAbJ--6">
          <mxGeometry width="50" height="50" relative="1" as="geometry">
            <mxPoint x="-410" y="160" as="sourcePoint" />
            <mxPoint x="-580" y="330" as="targetPoint" />
            <Array as="points">
              <mxPoint x="-600" y="160" />
            </Array>
          </mxGeometry>
        </mxCell>
        <mxCell id="c0eq8TVzOy0IekXLk8YF-10" value="" style="whiteSpace=wrap;html=1;aspect=fixed;" vertex="1" parent="WIyWlLk6GJQsqaUBKTNV-1">
          <mxGeometry x="-1600" y="450" width="80" height="80" as="geometry" />
        </mxCell>
        <mxCell id="c0eq8TVzOy0IekXLk8YF-11" value="" style="whiteSpace=wrap;html=1;aspect=fixed;" vertex="1" parent="WIyWlLk6GJQsqaUBKTNV-1">
          <mxGeometry x="250" y="460" width="80" height="80" as="geometry" />
        </mxCell>
        <mxCell id="c0eq8TVzOy0IekXLk8YF-12" value="" style="whiteSpace=wrap;html=1;aspect=fixed;" vertex="1" parent="WIyWlLk6GJQsqaUBKTNV-1">
          <mxGeometry x="-650" y="-310" width="80" height="80" as="geometry" />
        </mxCell>
        <mxCell id="c0eq8TVzOy0IekXLk8YF-13" value="" style="whiteSpace=wrap;html=1;aspect=fixed;" vertex="1" parent="WIyWlLk6GJQsqaUBKTNV-1">
          <mxGeometry x="-580" y="1610" width="80" height="80" as="geometry" />
        </mxCell>
      </root>
    </mxGraphModel>
  </diagram>
</mxfile>
